<svg width="334" height="323" viewBox="0 0 334 323" fill="none" xmlns="http://www.w3.org/2000/svg">
<path d="M330.953 126.757C311.38 111.8 288.54 101.23 266.684 91.3535C236.756 77.8296 206.04 65.1675 175.268 56.5908C163.712 53.3699 152.259 51.1835 140.818 49.7264C137.044 49.2458 125.299 46.6077 122.28 49.1884C118.556 52.3719 170.822 80.5187 173.399 81.7947C209.724 99.785 247.808 114.802 285.207 128.244C290.98 130.319 297.256 132.769 303.136 133.908C307.859 134.823 300.454 130.067 300.108 129.827C290.994 123.518 281.39 118.428 271.489 113.849C247.624 102.814 222.73 93.6405 198.209 86.617C188.515 83.8403 174.998 79.5728 165.67 81.1207C156.538 82.6363 172.915 94.103 175.194 95.7579C188.371 105.329 202.785 113.388 217.004 120.922C241.038 133.655 265.658 145.017 290.477 155.119C291.708 155.619 306.49 162.654 309.307 161.444C310.553 160.909 307.165 158.779 305.746 157.829C301.062 154.692 291.145 149.193 287.079 147.051C241.893 123.247 194.404 105.658 147.251 91.0999C143.952 90.0814 140.651 89.0396 137.344 88.1836C135.541 87.7166 130.923 86.7515 132.149 88.2268C135.28 91.9939 140.056 94.3969 144.195 97.2148C153.228 103.364 163.989 110.228 173.163 115.842C191.661 127.162 210.489 137.841 229.208 148.708C241.906 156.08 255.186 163.119 267.562 171.155C271.106 173.457 260.057 167.474 256.293 165.667C238.654 157.197 220.727 149.64 202.657 143C198.198 141.361 189.598 137.532 184.68 137.337C183.858 137.304 185.611 138.88 186.335 139.445C188.729 141.314 195.583 146.308 197.265 147.543C219.763 164.062 242.128 180.694 264.087 197.895" stroke="#252525" stroke-width="0.6" stroke-linecap="round"/>
<path d="M82.5 71L78.3388 111.227L61.9504 74.2547L70.4239 113.799L43.4123 83.7004L63.691 118.691L28.7004 98.4123L58.7992 125.424L19.2547 116.95L56.2275 133.339L16 137.5L56.2275 141.661L19.2547 158.05L58.7992 149.576L28.7004 176.588L63.691 156.309L43.4123 191.3L70.4239 161.201L61.9504 200.745L78.3388 163.773L82.5 204L86.6612 163.773L103.05 200.745L94.5761 161.201L121.588 191.3L101.309 156.309L136.3 176.588L106.201 149.576L145.745 158.05L108.773 141.661L149 137.5L108.773 133.339L145.745 116.95L106.201 125.424L136.3 98.4123L101.309 118.691L121.588 83.7004L94.5761 113.799L103.05 74.2547L86.6612 111.227L82.5 71Z" fill="#252525"/>
<circle cx="163" cy="195" r="102" fill="#F74811"/>
<g clip-path="url(#clip0_1035_6340)">
<path fill-rule="evenodd" clip-rule="evenodd" d="M217.85 219.394H215.405V212.231H217.85V219.394ZM221 221.465V210.123C220.993 209.827 220.878 209.545 220.678 209.336C220.478 209.127 220.209 209.006 219.927 209H212.291V230H215.405V222.59H219.927C220.209 222.584 220.479 222.463 220.679 222.254C220.879 222.044 220.994 221.762 221 221.465ZM210.113 212.231V209.009H200.298V212.231H203.481V230H206.931V212.231H210.113ZM194.969 217.984H192.528V212.231H194.973L194.969 217.984ZM198.118 229.995V210.123C198.112 209.827 197.996 209.545 197.797 209.336C197.597 209.127 197.327 209.006 197.045 209H190.454C190.176 209.01 189.912 209.132 189.718 209.341C189.525 209.551 189.416 209.831 189.416 210.123V230H192.53V221.184H194.975V230L198.118 229.995ZM186.729 229.995V226.804H182.552V220.832H185.667V217.638H182.552V212.231H186.74V209.009H179.431V230.009L186.729 229.995ZM177.25 212.226V209.005H167.441V212.226H170.621V229.995H174.071V212.231L177.25 212.226ZM165.762 219.037H161.076V222.234H165.766L165.762 219.037ZM154.407 219.39H151.965V212.231H154.412L154.407 219.39ZM157.555 221.461V210.123C157.548 209.827 157.433 209.546 157.234 209.337C157.034 209.128 156.766 209.007 156.484 209H148.846V230H151.96V222.59H156.484C156.767 222.585 157.037 222.464 157.237 222.254C157.438 222.045 157.553 221.762 157.559 221.465L157.555 221.461ZM146.668 212.226V209.005H136.859V212.226H140.04V229.995H143.484V212.231L146.668 212.226ZM131.524 217.979H129.087V212.226H131.533L131.524 217.979ZM134.673 229.991V210.123C134.667 209.827 134.551 209.545 134.351 209.336C134.152 209.127 133.882 209.006 133.6 209H127.022C126.744 209.009 126.48 209.131 126.286 209.341C126.092 209.55 125.984 209.831 125.984 210.123V230H129.098V221.184H131.543V230L134.673 229.991ZM123.284 229.991V226.804H119.105V220.832H122.222V217.638H119.105V212.231H123.291V209.009H115.991V230.009L123.284 229.991ZM113.813 212.231V209.009H104V212.231H107.183V230H110.631V212.231H113.813Z" fill="#252525"/>
</g>
<path d="M87.0801 135.573L78.7253 146.774H95.4348L87.0801 135.573L78.7253 146.774H95.4348L87.0801 135.573Z" fill="#252525"/>
<path d="M96.3547 149.27L88 160.485H104.709L96.3547 149.27L88 160.485H104.709L96.3547 149.27Z" fill="#252525"/>
<path d="M105.355 135.573L97 146.774H113.709L105.355 135.573L97 146.774H113.709L105.355 135.573Z" fill="#252525"/>
<path d="M114.355 149.27L106 160.485H122.709L114.355 149.27L106 160.485H122.709L114.355 149.27Z" fill="#252525"/>
<path d="M1 222L314 295" stroke="#252525" stroke-miterlimit="10"/>
<path d="M35 249L286 249" stroke="#252525" stroke-miterlimit="10"/>
<path d="M195 147L195 67" stroke="#252525" stroke-miterlimit="10"/>
<path fill-rule="evenodd" clip-rule="evenodd" d="M163 149V157.671H169.6V193H178.788V157.671H185V149H163Z" fill="#F9F9F9"/>
<path fill-rule="evenodd" clip-rule="evenodd" d="M141 149V157.671H147.212V193H156.4V157.671H163V149H141Z" fill="#252525"/>
<path d="M243.8 295.8C243.8 297.073 243.294 298.294 242.394 299.194C241.494 300.094 240.273 300.6 239 300.6C237.727 300.6 236.506 300.094 235.606 299.194C234.706 298.294 234.2 297.073 234.2 295.8C234.2 294.527 234.706 293.306 235.606 292.406C236.506 291.506 237.727 291 239 291C240.273 291 241.494 291.506 242.394 292.406C243.294 293.306 243.8 294.527 243.8 295.8ZM242.2 307C242.2 307.849 241.863 308.663 241.263 309.263C240.663 309.863 239.849 310.2 239 310.2C238.151 310.2 237.337 309.863 236.737 309.263C236.137 308.663 235.8 307.849 235.8 307C235.8 306.151 236.137 305.337 236.737 304.737C237.337 304.137 238.151 303.8 239 303.8C239.849 303.8 240.663 304.137 241.263 304.737C241.863 305.337 242.2 306.151 242.2 307ZM239 323C240.273 323 241.494 322.494 242.394 321.594C243.294 320.694 243.8 319.473 243.8 318.2C243.8 316.927 243.294 315.706 242.394 314.806C241.494 313.906 240.273 313.4 239 313.4C237.727 313.4 236.506 313.906 235.606 314.806C234.706 315.706 234.2 316.927 234.2 318.2C234.2 319.473 234.706 320.694 235.606 321.594C236.506 322.494 237.727 323 239 323ZM255 307C255 308.273 254.494 309.494 253.594 310.394C252.694 311.294 251.473 311.8 250.2 311.8C248.927 311.8 247.706 311.294 246.806 310.394C245.906 309.494 245.4 308.273 245.4 307C245.4 305.727 245.906 304.506 246.806 303.606C247.706 302.706 248.927 302.2 250.2 302.2C251.473 302.2 252.694 302.706 253.594 303.606C254.494 304.506 255 305.727 255 307ZM227.8 311.8C229.073 311.8 230.294 311.294 231.194 310.394C232.094 309.494 232.6 308.273 232.6 307C232.6 305.727 232.094 304.506 231.194 303.606C230.294 302.706 229.073 302.2 227.8 302.2C226.527 302.2 225.306 302.706 224.406 303.606C223.506 304.506 223 305.727 223 307C223 308.273 223.506 309.494 224.406 310.394C225.306 311.294 226.527 311.8 227.8 311.8Z" fill="#252525"/>
<g clip-path="url(#clip1_1035_6340)">
<path d="M63.1 260.38C63.1 260.653 63.019 260.92 62.8674 261.147C62.7158 261.374 62.5002 261.551 62.2481 261.655C61.9959 261.759 61.7184 261.787 61.4507 261.733C61.183 261.68 60.9371 261.549 60.7441 261.356C60.5511 261.163 60.4197 260.917 60.3665 260.649C60.3132 260.382 60.3405 260.104 60.445 259.852C60.5494 259.6 60.7263 259.384 60.9533 259.233C61.1802 259.081 61.447 259 61.7199 259C62.0859 259 62.437 259.145 62.6958 259.404C62.9546 259.663 63.1 260.014 63.1 260.38Z" fill="#252525"/>
<path d="M74.46 260.38C74.46 260.654 74.3785 260.922 74.226 261.149C74.0734 261.376 73.8567 261.553 73.6034 261.657C73.35 261.761 73.0715 261.787 72.8033 261.732C72.5351 261.677 72.2892 261.544 72.0971 261.349C71.9049 261.154 71.7751 260.906 71.7241 260.637C71.6732 260.368 71.7033 260.09 71.8109 259.838C71.9184 259.586 72.0984 259.372 72.328 259.223C72.5575 259.074 72.8262 258.996 73.1 259C73.4625 259.005 73.8084 259.153 74.0629 259.411C74.3174 259.67 74.46 260.018 74.46 260.38Z" fill="#252525"/>
<path d="M85.82 260.38C85.82 260.653 85.7391 260.92 85.5874 261.147C85.4358 261.374 85.2203 261.551 84.9681 261.655C84.7159 261.759 84.4385 261.787 84.1708 261.733C83.9031 261.68 83.6572 261.549 83.4642 261.356C83.2712 261.163 83.1398 260.917 83.0865 260.649C83.0333 260.382 83.0606 260.104 83.1651 259.852C83.2695 259.6 83.4464 259.384 83.6733 259.233C83.9002 259.081 84.1671 259 84.44 259C84.806 259 85.157 259.145 85.4158 259.404C85.6746 259.663 85.82 260.014 85.82 260.38Z" fill="#252525"/>
<path d="M97.17 260.38C97.17 260.653 97.089 260.92 96.9374 261.147C96.7858 261.374 96.5702 261.551 96.3181 261.655C96.0659 261.759 95.7885 261.787 95.5208 261.733C95.2531 261.68 95.0072 261.549 94.8142 261.356C94.6212 261.163 94.4897 260.917 94.4365 260.649C94.3832 260.382 94.4106 260.104 94.515 259.852C94.6195 259.6 94.7964 259.384 95.0233 259.233C95.2503 259.081 95.5171 259 95.79 259C96.156 259 96.507 259.145 96.7658 259.404C97.0246 259.663 97.17 260.014 97.17 260.38Z" fill="#252525"/>
<path d="M108.52 260.38C108.52 260.653 108.439 260.921 108.287 261.148C108.135 261.375 107.918 261.552 107.666 261.656C107.413 261.76 107.135 261.787 106.867 261.733C106.599 261.679 106.353 261.546 106.161 261.352C105.968 261.158 105.837 260.911 105.785 260.643C105.733 260.375 105.762 260.097 105.868 259.845C105.974 259.593 106.152 259.378 106.381 259.228C106.609 259.077 106.877 258.998 107.15 259C107.331 259 107.51 259.036 107.677 259.105C107.843 259.175 107.995 259.277 108.122 259.405C108.25 259.533 108.35 259.685 108.419 259.853C108.487 260.02 108.521 260.199 108.52 260.38Z" fill="#252525"/>
<path d="M119.88 260.38C119.88 260.653 119.799 260.92 119.647 261.147C119.496 261.374 119.28 261.551 119.028 261.655C118.776 261.759 118.498 261.787 118.231 261.733C117.963 261.68 117.717 261.549 117.524 261.356C117.331 261.163 117.2 260.917 117.147 260.649C117.093 260.382 117.121 260.104 117.225 259.852C117.33 259.6 117.506 259.384 117.733 259.233C117.96 259.081 118.227 259 118.5 259C118.866 259 119.217 259.145 119.476 259.404C119.735 259.663 119.88 260.014 119.88 260.38Z" fill="#252525"/>
<path d="M63.1 270.77C63.1 271.043 63.019 271.309 62.8674 271.536C62.7158 271.763 62.5002 271.94 62.2481 272.045C61.9959 272.149 61.7184 272.176 61.4507 272.123C61.183 272.07 60.9371 271.938 60.7441 271.745C60.5511 271.552 60.4197 271.307 60.3665 271.039C60.3132 270.771 60.3405 270.494 60.445 270.242C60.5494 269.989 60.7263 269.774 60.9533 269.622C61.1802 269.471 61.447 269.39 61.7199 269.39C62.0859 269.39 62.437 269.535 62.6958 269.794C62.9546 270.053 63.1 270.404 63.1 270.77Z" fill="#252525"/>
<path d="M74.46 270.77C74.46 271.044 74.3785 271.311 74.226 271.539C74.0734 271.766 73.8567 271.943 73.6034 272.047C73.35 272.15 73.0715 272.177 72.8033 272.122C72.5351 272.067 72.2892 271.933 72.0971 271.738C71.9049 271.543 71.7751 271.296 71.7241 271.027C71.6732 270.758 71.7033 270.479 71.8109 270.228C71.9184 269.976 72.0984 269.762 72.328 269.613C72.5575 269.463 72.8262 269.386 73.1 269.39C73.4625 269.395 73.8084 269.543 74.0629 269.801C74.3174 270.059 74.46 270.407 74.46 270.77Z" fill="#252525"/>
<path d="M85.82 270.77C85.82 271.043 85.7391 271.309 85.5874 271.536C85.4358 271.763 85.2203 271.94 84.9681 272.045C84.7159 272.149 84.4385 272.176 84.1708 272.123C83.9031 272.07 83.6572 271.938 83.4642 271.745C83.2712 271.552 83.1398 271.307 83.0865 271.039C83.0333 270.771 83.0606 270.494 83.1651 270.242C83.2695 269.989 83.4464 269.774 83.6733 269.622C83.9002 269.471 84.1671 269.39 84.44 269.39C84.806 269.39 85.157 269.535 85.4158 269.794C85.6746 270.053 85.82 270.404 85.82 270.77Z" fill="#252525"/>
<path d="M97.17 270.77C97.17 271.043 97.089 271.309 96.9374 271.536C96.7858 271.763 96.5702 271.94 96.3181 272.045C96.0659 272.149 95.7885 272.176 95.5208 272.123C95.2531 272.07 95.0072 271.938 94.8142 271.745C94.6212 271.552 94.4897 271.307 94.4365 271.039C94.3832 270.771 94.4106 270.494 94.515 270.242C94.6195 269.989 94.7964 269.774 95.0233 269.622C95.2503 269.471 95.5171 269.39 95.79 269.39C96.156 269.39 96.507 269.535 96.7658 269.794C97.0246 270.053 97.17 270.404 97.17 270.77Z" fill="#252525"/>
<path d="M108.52 270.77C108.52 271.043 108.439 271.31 108.287 271.537C108.135 271.765 107.918 271.941 107.666 272.046C107.413 272.15 107.135 272.176 106.867 272.122C106.599 272.068 106.353 271.936 106.161 271.742C105.968 271.548 105.837 271.301 105.785 271.033C105.733 270.764 105.762 270.487 105.868 270.235C105.974 269.983 106.152 269.768 106.381 269.617C106.609 269.467 106.877 269.388 107.15 269.39C107.331 269.39 107.51 269.425 107.677 269.495C107.843 269.564 107.995 269.666 108.122 269.794C108.25 269.923 108.35 270.075 108.419 270.242C108.487 270.41 108.521 270.589 108.52 270.77Z" fill="#252525"/>
<path d="M119.88 270.77C119.88 271.043 119.799 271.309 119.647 271.536C119.496 271.763 119.28 271.94 119.028 272.045C118.776 272.149 118.498 272.176 118.231 272.123C117.963 272.07 117.717 271.938 117.524 271.745C117.331 271.552 117.2 271.307 117.147 271.039C117.093 270.771 117.121 270.494 117.225 270.242C117.33 269.989 117.506 269.774 117.733 269.622C117.96 269.471 118.227 269.39 118.5 269.39C118.866 269.39 119.217 269.535 119.476 269.794C119.735 270.053 119.88 270.404 119.88 270.77Z" fill="#252525"/>
<path d="M63.1 281.2C63.1 281.473 63.019 281.74 62.8674 281.967C62.7158 282.194 62.5002 282.371 62.2481 282.475C61.9959 282.58 61.7184 282.607 61.4507 282.554C61.183 282.501 60.9371 282.369 60.7441 282.176C60.5511 281.983 60.4197 281.737 60.3665 281.47C60.3132 281.202 60.3405 280.924 60.445 280.672C60.5494 280.42 60.7263 280.205 60.9533 280.053C61.1802 279.901 61.447 279.82 61.7199 279.82C62.0859 279.82 62.437 279.966 62.6958 280.225C62.9546 280.483 63.1 280.834 63.1 281.2Z" fill="#252525"/>
<path d="M74.4599 281.2C74.4599 281.473 74.379 281.74 74.2274 281.967C74.0758 282.194 73.8602 282.371 73.6081 282.475C73.3559 282.58 73.0784 282.607 72.8107 282.554C72.543 282.501 72.2972 282.369 72.1042 282.176C71.9112 281.983 71.7797 281.737 71.7265 281.47C71.6732 281.202 71.7005 280.924 71.805 280.672C71.9094 280.42 72.0863 280.205 72.3133 280.053C72.5402 279.901 72.807 279.82 73.0799 279.82C73.4459 279.82 73.797 279.966 74.0558 280.225C74.3146 280.483 74.4599 280.834 74.4599 281.2Z" fill="#252525"/>
<path d="M85.82 281.2C85.82 281.473 85.7391 281.74 85.5874 281.967C85.4358 282.194 85.2203 282.371 84.9681 282.475C84.7159 282.58 84.4385 282.607 84.1708 282.554C83.9031 282.501 83.6572 282.369 83.4642 282.176C83.2712 281.983 83.1398 281.737 83.0865 281.47C83.0333 281.202 83.0606 280.924 83.1651 280.672C83.2695 280.42 83.4464 280.205 83.6733 280.053C83.9002 279.901 84.1671 279.82 84.44 279.82C84.806 279.82 85.157 279.966 85.4158 280.225C85.6746 280.483 85.82 280.834 85.82 281.2Z" fill="#252525"/>
<path d="M97.17 281.2C97.17 281.473 97.089 281.74 96.9374 281.967C96.7858 282.194 96.5702 282.371 96.3181 282.475C96.0659 282.58 95.7885 282.607 95.5208 282.554C95.2531 282.501 95.0072 282.369 94.8142 282.176C94.6212 281.983 94.4897 281.737 94.4365 281.47C94.3832 281.202 94.4106 280.924 94.515 280.672C94.6195 280.42 94.7964 280.205 95.0233 280.053C95.2503 279.901 95.5171 279.82 95.79 279.82C96.156 279.82 96.507 279.966 96.7658 280.225C97.0246 280.483 97.17 280.834 97.17 281.2Z" fill="#252525"/>
<path d="M107.15 282.54C107.912 282.54 108.53 281.922 108.53 281.16C108.53 280.398 107.912 279.78 107.15 279.78C106.388 279.78 105.77 280.398 105.77 281.16C105.77 281.922 106.388 282.54 107.15 282.54Z" fill="#252525"/>
<path d="M118.5 282.54C119.262 282.54 119.88 281.922 119.88 281.16C119.88 280.398 119.262 279.78 118.5 279.78C117.738 279.78 117.12 280.398 117.12 281.16C117.12 281.922 117.738 282.54 118.5 282.54Z" fill="#252525"/>
<path d="M63.1 291.55C63.1 291.823 63.019 292.09 62.8674 292.317C62.7158 292.544 62.5002 292.72 62.2481 292.825C61.9959 292.929 61.7184 292.957 61.4507 292.903C61.183 292.85 60.9371 292.719 60.7441 292.526C60.5511 292.333 60.4197 292.087 60.3665 291.819C60.3132 291.551 60.3405 291.274 60.445 291.022C60.5494 290.77 60.7263 290.554 60.9533 290.402C61.1802 290.251 61.447 290.17 61.7199 290.17C62.0859 290.17 62.437 290.315 62.6958 290.574C62.9546 290.833 63.1 291.184 63.1 291.55Z" fill="#252525"/>
<path d="M74.46 291.55C74.4659 291.825 74.3896 292.096 74.2407 292.327C74.0919 292.558 73.8773 292.74 73.6245 292.848C73.3718 292.957 73.0923 292.987 72.8221 292.936C72.5519 292.884 72.3033 292.753 72.1081 292.56C71.9129 292.366 71.7801 292.118 71.7266 291.848C71.6732 291.579 71.7016 291.299 71.8082 291.045C71.9148 290.792 72.0947 290.576 72.3249 290.425C72.5551 290.275 72.825 290.196 73.1 290.2C73.4574 290.205 73.7988 290.349 74.0525 290.601C74.3062 290.853 74.4522 291.193 74.46 291.55Z" fill="#252525"/>
<path d="M85.82 291.55C85.82 291.823 85.7391 292.09 85.5874 292.317C85.4358 292.544 85.2203 292.72 84.9681 292.825C84.7159 292.929 84.4385 292.957 84.1708 292.903C83.9031 292.85 83.6572 292.719 83.4642 292.526C83.2712 292.333 83.1398 292.087 83.0865 291.819C83.0333 291.551 83.0606 291.274 83.1651 291.022C83.2695 290.77 83.4464 290.554 83.6733 290.402C83.9002 290.251 84.1671 290.17 84.44 290.17C84.806 290.17 85.157 290.315 85.4158 290.574C85.6746 290.833 85.82 291.184 85.82 291.55Z" fill="#252525"/>
<path d="M97.17 291.55C97.17 291.823 97.089 292.09 96.9374 292.317C96.7858 292.544 96.5702 292.72 96.3181 292.825C96.0659 292.929 95.7885 292.957 95.5208 292.903C95.2531 292.85 95.0072 292.719 94.8142 292.526C94.6212 292.333 94.4897 292.087 94.4365 291.819C94.3832 291.551 94.4106 291.274 94.515 291.022C94.6195 290.77 94.7964 290.554 95.0233 290.402C95.2503 290.251 95.5171 290.17 95.79 290.17C96.156 290.17 96.507 290.315 96.7658 290.574C97.0246 290.833 97.17 291.184 97.17 291.55Z" fill="#252525"/>
<path d="M108.52 291.55C108.52 291.823 108.439 292.091 108.287 292.318C108.135 292.545 107.918 292.722 107.666 292.826C107.413 292.93 107.135 292.957 106.867 292.903C106.599 292.849 106.353 292.716 106.161 292.522C105.968 292.328 105.837 292.081 105.785 291.813C105.733 291.545 105.762 291.267 105.868 291.015C105.974 290.763 106.152 290.548 106.381 290.398C106.609 290.247 106.877 290.168 107.15 290.17C107.331 290.17 107.51 290.206 107.677 290.275C107.843 290.345 107.995 290.446 108.122 290.575C108.25 290.703 108.35 290.855 108.419 291.023C108.487 291.19 108.521 291.369 108.52 291.55Z" fill="#252525"/>
<path d="M119.88 291.55C119.886 291.824 119.81 292.094 119.662 292.325C119.514 292.556 119.301 292.737 119.049 292.846C118.798 292.955 118.519 292.987 118.25 292.937C117.98 292.887 117.731 292.758 117.535 292.567C117.339 292.375 117.205 292.129 117.149 291.861C117.093 291.592 117.119 291.313 117.222 291.059C117.326 290.805 117.503 290.588 117.73 290.435C117.958 290.282 118.226 290.2 118.5 290.2C118.861 290.2 119.207 290.341 119.465 290.594C119.723 290.846 119.872 291.189 119.88 291.55Z" fill="#252525"/>
</g>
<g clip-path="url(#clip2_1035_6340)">
<path d="M259.38 208.24C259.653 208.24 259.92 208.321 260.147 208.473C260.374 208.624 260.551 208.84 260.655 209.092C260.759 209.344 260.787 209.622 260.733 209.889C260.68 210.157 260.549 210.403 260.356 210.596C260.163 210.789 259.917 210.92 259.649 210.973C259.382 211.027 259.104 210.999 258.852 210.895C258.6 210.79 258.384 210.614 258.233 210.387C258.081 210.16 258 209.893 258 209.62C258 209.254 258.145 208.903 258.404 208.644C258.663 208.385 259.014 208.24 259.38 208.24Z" fill="#252525"/>
<path d="M259.38 196.9C259.653 196.9 259.92 196.981 260.147 197.133C260.374 197.284 260.551 197.5 260.655 197.752C260.759 198.004 260.787 198.282 260.733 198.549C260.68 198.817 260.549 199.063 260.356 199.256C260.163 199.449 259.917 199.58 259.649 199.634C259.382 199.687 259.104 199.66 258.852 199.555C258.6 199.451 258.384 199.274 258.233 199.047C258.081 198.82 258 198.553 258 198.28C258 197.914 258.145 197.563 258.404 197.304C258.663 197.046 259.014 196.9 259.38 196.9Z" fill="#252525"/>
<path d="M259.38 185.54C259.654 185.54 259.921 185.621 260.149 185.774C260.376 185.926 260.553 186.143 260.657 186.396C260.761 186.65 260.787 186.928 260.732 187.197C260.677 187.465 260.544 187.711 260.349 187.903C260.154 188.095 259.906 188.225 259.637 188.276C259.368 188.327 259.09 188.296 258.838 188.189C258.586 188.081 258.372 187.901 258.223 187.672C258.074 187.442 257.996 187.174 258 186.9C258.005 186.537 258.153 186.191 258.411 185.937C258.669 185.682 259.017 185.54 259.38 185.54Z" fill="#252525"/>
<path d="M269.77 208.24C270.043 208.24 270.31 208.321 270.537 208.473C270.764 208.624 270.941 208.84 271.045 209.092C271.149 209.344 271.177 209.622 271.123 209.889C271.07 210.157 270.939 210.403 270.746 210.596C270.553 210.789 270.307 210.92 270.039 210.973C269.772 211.027 269.494 210.999 269.242 210.895C268.99 210.79 268.774 210.614 268.623 210.387C268.471 210.16 268.39 209.893 268.39 209.62C268.39 209.254 268.535 208.903 268.794 208.644C269.053 208.385 269.404 208.24 269.77 208.24Z" fill="#252525"/>
<path d="M269.38 197C269.653 197 269.92 197.081 270.147 197.232C270.374 197.384 270.551 197.599 270.655 197.852C270.759 198.104 270.787 198.381 270.733 198.649C270.68 198.917 270.549 199.163 270.356 199.356C270.163 199.549 269.917 199.68 269.649 199.733C269.382 199.786 269.104 199.759 268.852 199.655C268.6 199.55 268.384 199.373 268.233 199.146C268.081 198.92 268 198.653 268 198.38C268 198.014 268.145 197.663 268.404 197.404C268.663 197.145 269.014 197 269.38 197Z" fill="#252525"/>
<path d="M269.77 185.54C270.044 185.54 270.311 185.621 270.539 185.774C270.766 185.926 270.943 186.143 271.047 186.396C271.151 186.65 271.177 186.928 271.122 187.197C271.067 187.465 270.933 187.711 270.738 187.903C270.543 188.095 270.296 188.225 270.027 188.276C269.758 188.327 269.48 188.296 269.228 188.189C268.976 188.081 268.762 187.901 268.613 187.672C268.464 187.442 268.386 187.174 268.39 186.9C268.395 186.537 268.543 186.191 268.801 185.937C269.059 185.682 269.407 185.54 269.77 185.54Z" fill="#252525"/>
</g>
<rect width="3.78387" height="4" transform="matrix(-1.56172e-08 1 1 1.07695e-06 123 112.106)" fill="#252525"/>
<rect width="3.78387" height="4" transform="matrix(-1.56172e-08 1 1 1.07695e-06 123 121.692)" fill="#252525"/>
<rect width="1.13516" height="4" transform="matrix(-1.56172e-08 1 1 1.07695e-06 123 109.584)" fill="#252525"/>
<rect width="1.13516" height="4" transform="matrix(-1.56172e-08 1 1 1.07695e-06 123 117.278)" fill="#252525"/>
<rect width="1.13516" height="4" transform="matrix(-1.56172e-08 1 1 1.07695e-06 123 134.542)" fill="#252525"/>
<rect width="1.13516" height="4" transform="matrix(-1.56172e-08 1 1 1.07695e-06 123 86)" fill="#252525"/>
<rect width="0.504516" height="4" transform="matrix(-1.56172e-08 1 1 1.07695e-06 123 105.8)" fill="#252525"/>
<rect width="0.504516" height="4" transform="matrix(-1.56172e-08 1 1 1.07695e-06 123 89.0928)" fill="#252525"/>
<rect width="0.504516" height="4" transform="matrix(-1.56172e-08 1 1 1.07695e-06 123 91.5557)" fill="#252525"/>
<rect width="0.504516" height="4" transform="matrix(-1.56172e-08 1 1 1.07695e-06 123 107.692)" fill="#252525"/>
<rect width="0.504516" height="4" transform="matrix(-1.56172e-08 1 1 1.07695e-06 123 119.801)" fill="#252525"/>
<path d="M83.605 177.8V178.7H80.47V188H79.48V178.7H76.345V177.8H83.605ZM92.1591 177.8V178.7H89.0241V188H88.0341V178.7H84.8991V177.8H92.1591ZM76.78 197.125V196.375H82.66V197.125H76.78ZM76.78 205.125V204.375H82.66V205.125H76.78Z" fill="#252525"/>
<defs>
<clipPath id="clip0_1035_6340">
<rect width="117" height="21" fill="white" transform="translate(104 209)"/>
</clipPath>
<clipPath id="clip1_1035_6340">
<rect width="70.88" height="33.93" fill="white" transform="translate(49 259)"/>
</clipPath>
<clipPath id="clip2_1035_6340">
<rect width="26" height="13" fill="white" transform="translate(258 211) rotate(-90)"/>
</clipPath>
</defs>
</svg>
