<svg width="40" height="40" viewBox="0 0 40 40" fill="none" xmlns="http://www.w3.org/2000/svg">
<path fill-rule="evenodd" clip-rule="evenodd" d="M2.49999 20.0004C2.49999 20.3319 2.63168 20.6498 2.86611 20.8843C3.10053 21.1187 3.41847 21.2504 3.74999 21.2504L33.2325 21.2504L25.365 29.1154C25.2488 29.2316 25.1566 29.3696 25.0937 29.5214C25.0308 29.6733 24.9984 29.836 24.9984 30.0004C24.9984 30.1647 25.0308 30.3275 25.0937 30.4793C25.1566 30.6312 25.2488 30.7692 25.365 30.8854C25.4812 31.0016 25.6192 31.0938 25.771 31.1567C25.9229 31.2196 26.0856 31.252 26.25 31.252C26.4144 31.252 26.5771 31.2196 26.729 31.1567C26.8808 31.0938 27.0188 31.0016 27.135 30.8854L37.135 20.8854C37.2514 20.7693 37.3438 20.6313 37.4068 20.4795C37.4698 20.3276 37.5022 20.1648 37.5022 20.0004C37.5022 19.836 37.4698 19.6732 37.4068 19.5213C37.3438 19.3694 37.2514 19.2315 37.135 19.1154L27.135 9.11538C27.0188 8.99916 26.8808 8.90697 26.729 8.84407C26.5771 8.78117 26.4144 8.7488 26.25 8.7488C26.0856 8.7488 25.9229 8.78117 25.771 8.84407C25.6192 8.90697 25.4812 8.99916 25.365 9.11538C25.2488 9.2316 25.1566 9.36957 25.0937 9.52142C25.0308 9.67326 24.9984 9.83602 24.9984 10.0004C24.9984 10.1647 25.0308 10.3275 25.0937 10.4793C25.1566 10.6312 25.2488 10.7692 25.365 10.8854L33.2325 18.7504L3.74999 18.7504C3.41847 18.7504 3.10053 18.8821 2.86611 19.1165C2.63168 19.3509 2.49999 19.6689 2.49999 20.0004Z" fill="#252525"/>
</svg>
