<svg width="156" height="156" viewBox="0 0 156 156" fill="none" xmlns="http://www.w3.org/2000/svg">
<ellipse rx="41.119" ry="41.1213" transform="matrix(0.999988 0.00495158 -0.00495622 0.999988 114.678 114.675)" fill="#F74811"/>
<path d="M122.192 115.793C122.22 113.646 123.391 111.614 125.248 110.489C124.077 108.841 122.114 107.796 120.072 107.733C117.894 107.508 115.783 109.016 114.673 109.016C113.541 109.016 111.833 107.755 109.992 107.793C107.594 107.869 105.358 109.212 104.191 111.277C101.683 115.555 103.554 121.841 105.957 125.298C107.159 126.992 108.564 128.883 110.402 128.816C112.201 128.742 112.873 127.686 115.045 127.686C117.196 127.686 117.826 128.816 119.702 128.773C121.633 128.742 122.849 127.072 124.009 125.363C124.873 124.157 125.537 122.824 125.978 121.413C123.71 120.468 122.195 118.219 122.192 115.793Z" fill="#F9F9F9"/>
<path d="M118.649 105.459C119.702 104.215 120.22 102.615 120.095 101C118.487 101.166 117.001 101.923 115.934 103.12C114.891 104.289 114.348 105.861 114.451 107.414C116.06 107.43 117.641 106.694 118.649 105.459Z" fill="#F9F9F9"/>
<ellipse rx="41.119" ry="41.1215" transform="matrix(0.999988 0.00484861 -0.00506148 0.999987 41.3266 41.3203)" fill="#252525"/>
<path d="M34.2497 48.6161C34.2497 49.3279 34.8213 49.9089 35.5246 49.9089H36.9821V53.5713C36.9821 54.4991 37.7153 55.2565 38.6161 55.2565C39.5199 55.2565 40.2501 54.5021 40.2501 53.5713V49.9058H42.794V53.5683C42.794 54.496 43.5272 55.2535 44.428 55.2535C45.3318 55.2535 46.062 54.4991 46.062 53.5683V49.9058H47.5195C48.2228 49.9058 48.7944 49.3248 48.7944 48.613V36.5915H34.2497V48.6161ZM44.9368 30.3617L46.2805 28.3845C46.3583 28.2689 46.3403 28.1138 46.2356 28.0377C46.1309 27.9647 45.9812 28.0012 45.9034 28.1168L44.5088 30.1731C43.59 29.8051 42.5665 29.6012 41.4921 29.6012C40.4177 29.6012 39.3942 29.8051 38.4754 30.1731L37.0808 28.1198C37.003 28.0043 36.8534 27.9647 36.7486 28.0408C36.6439 28.1138 36.6259 28.2659 36.7037 28.3875L38.0475 30.3648C35.9107 31.3747 34.4143 33.288 34.2228 35.5238H48.7675C48.5699 33.285 47.0706 31.3716 44.9368 30.3617ZM38.4216 33.4796C38.2623 33.4796 38.1067 33.4317 37.9743 33.3417C37.8419 33.2518 37.7387 33.124 37.6778 32.9745C37.6169 32.825 37.6009 32.6605 37.632 32.5017C37.663 32.343 37.7397 32.1972 37.8523 32.0828C37.9649 31.9683 38.1083 31.8904 38.2645 31.8588C38.4207 31.8273 38.5825 31.8435 38.7296 31.9054C38.8767 31.9673 39.0025 32.0722 39.0909 32.2068C39.1794 32.3413 39.2266 32.4995 39.2266 32.6614C39.2261 32.8782 39.1411 33.086 38.9902 33.2394C38.8393 33.3927 38.6349 33.4791 38.4216 33.4796ZM44.6584 33.4796C44.4992 33.4796 44.3436 33.4317 44.2112 33.3417C44.0788 33.2518 43.9756 33.124 43.9147 32.9745C43.8537 32.825 43.8378 32.6605 43.8688 32.5017C43.8999 32.343 43.9766 32.1972 44.0892 32.0828C44.2018 31.9683 44.3452 31.8904 44.5014 31.8588C44.6575 31.8273 44.8194 31.8435 44.9665 31.9054C45.1136 31.9673 45.2393 32.0722 45.3278 32.2068C45.4163 32.3413 45.4635 32.4995 45.4635 32.6614C45.4629 32.8782 45.3779 33.086 45.2271 33.2394C45.0762 33.3927 44.8718 33.4791 44.6584 33.4796ZM51.3442 36.5428C50.4404 36.5428 49.7102 37.2972 49.7102 38.228V44.8107C49.7102 45.7384 50.4434 46.4959 51.3442 46.4959C52.248 46.4959 52.9782 45.7415 52.9782 44.8107V38.225C52.9812 37.2942 52.251 36.5428 51.3442 36.5428ZM31.634 36.5428C30.7302 36.5428 30 37.2972 30 38.228V44.8107C30 45.7384 30.7332 46.4959 31.634 46.4959C32.5378 46.4959 33.2681 45.7415 33.2681 44.8107V38.225C33.2681 37.2942 32.5348 36.5428 31.634 36.5428Z" fill="#F9F9F9"/>
<line y1="-0.5" x2="93.5042" y2="-0.5" transform="matrix(0.707087 -0.707127 0.707087 0.707127 41.3311 115.709)" stroke="#252525"/>
</svg>
