<svg width="16" height="19" viewBox="0 0 16 19" fill="none" xmlns="http://www.w3.org/2000/svg">
<rect x="-0.000244141" y="9.01514" width="1.44721" height="15.9157" transform="rotate(-90 -0.000244141 9.01514)" fill="#252525"/>
<rect x="-0.000244141" y="5.34888" width="1.44721" height="15.9157" transform="rotate(-90 -0.000244141 5.34888)" fill="#252525"/>
<rect x="-0.000244141" y="9.97974" width="0.434164" height="15.9157" transform="rotate(-90 -0.000244141 9.97974)" fill="#252525"/>
<rect x="-0.000244141" y="7.03711" width="0.434164" height="15.9157" transform="rotate(-90 -0.000244141 7.03711)" fill="#252525"/>
<rect x="-0.000244141" y="0.434082" width="0.434164" height="15.9157" transform="rotate(-90 -0.000244141 0.434082)" fill="#252525"/>
<rect x="-0.000244141" y="19" width="0.434164" height="15.9157" transform="rotate(-90 -0.000244141 19)" fill="#252525"/>
<rect x="-0.000244141" y="11.427" width="0.192962" height="15.9157" transform="rotate(-90 -0.000244141 11.427)" fill="#252525"/>
<rect x="-0.000244141" y="17.8171" width="0.192962" height="15.9157" transform="rotate(-90 -0.000244141 17.8171)" fill="#252525"/>
<rect x="-0.000244141" y="16.8752" width="0.192962" height="15.9157" transform="rotate(-90 -0.000244141 16.8752)" fill="#252525"/>
<rect x="-0.000244141" y="10.7034" width="0.192962" height="15.9157" transform="rotate(-90 -0.000244141 10.7034)" fill="#252525"/>
<rect x="-0.000244141" y="6.07227" width="0.192962" height="15.9157" transform="rotate(-90 -0.000244141 6.07227)" fill="#252525"/>
</svg>
