<svg width="15" height="20" viewBox="0 0 15 20" fill="none" xmlns="http://www.w3.org/2000/svg">
<rect y="9.48947" width="1.52339" height="14.9999" transform="rotate(-90 0 9.48947)" fill="#252525"/>
<rect y="5.63026" width="1.52339" height="14.9999" transform="rotate(-90 0 5.63026)" fill="#252525"/>
<rect y="10.5051" width="0.457016" height="14.9999" transform="rotate(-90 0 10.5051)" fill="#252525"/>
<rect y="7.40759" width="0.457016" height="14.9999" transform="rotate(-90 0 7.40759)" fill="#252525"/>
<rect y="0.457008" width="0.457016" height="14.9999" transform="rotate(-90 0 0.457008)" fill="#252525"/>
<rect y="20" width="0.457016" height="14.9999" transform="rotate(-90 0 20)" fill="#252525"/>
<rect y="12.0285" width="0.203118" height="14.9999" transform="rotate(-90 0 12.0285)" fill="#252525"/>
<rect y="18.7548" width="0.203118" height="14.9999" transform="rotate(-90 0 18.7548)" fill="#252525"/>
<rect y="17.7635" width="0.203118" height="14.9999" transform="rotate(-90 0 17.7635)" fill="#252525"/>
<rect y="11.2667" width="0.203118" height="14.9999" transform="rotate(-90 0 11.2667)" fill="#252525"/>
<rect y="6.39189" width="0.203118" height="14.9999" transform="rotate(-90 0 6.39189)" fill="#252525"/>
</svg>
