<svg width="9" height="52" viewBox="0 0 9 52" fill="none" xmlns="http://www.w3.org/2000/svg">
<rect width="3.96081" height="8.34478" transform="matrix(6.07917e-08 -1 -1 -4.91171e-07 8.34473 24.6727)" fill="#252525"/>
<rect width="3.96081" height="8.34478" transform="matrix(6.07917e-08 -1 -1 -4.91171e-07 8.34473 14.6387)" fill="#252525"/>
<rect width="1.18824" height="8.34478" transform="matrix(6.07917e-08 -1 -1 -4.91171e-07 8.34473 27.3131)" fill="#252525"/>
<rect width="1.18824" height="8.34478" transform="matrix(6.07917e-08 -1 -1 -4.91171e-07 8.34473 19.2598)" fill="#252525"/>
<rect width="1.18824" height="8.34478" transform="matrix(6.07917e-08 -1 -1 -4.91171e-07 8.34473 1.18823)" fill="#252525"/>
<rect width="1.18824" height="8.34478" transform="matrix(6.07917e-08 -1 -1 -4.91171e-07 8.34473 52)" fill="#252525"/>
<rect width="0.528107" height="8.34478" transform="matrix(6.07917e-08 -1 -1 -4.91171e-07 8.34473 31.2739)" fill="#252525"/>
<rect width="0.528107" height="8.34478" transform="matrix(6.07917e-08 -1 -1 -4.91171e-07 8.34473 48.7626)" fill="#252525"/>
<rect width="0.528107" height="8.34478" transform="matrix(6.07917e-08 -1 -1 -4.91171e-07 8.34473 46.1852)" fill="#252525"/>
<rect width="0.528107" height="8.34478" transform="matrix(6.07917e-08 -1 -1 -4.91171e-07 8.34473 29.2935)" fill="#252525"/>
<rect width="0.528107" height="8.34478" transform="matrix(6.07917e-08 -1 -1 -4.91171e-07 8.34473 16.6189)" fill="#252525"/>
</svg>
