<svg width="21" height="24" viewBox="0 0 21 24" fill="none" xmlns="http://www.w3.org/2000/svg">
<rect y="11.3875" width="1.82806" height="20.1041" transform="rotate(-90 0 11.3875)" fill="#252525"/>
<rect y="6.75635" width="1.82806" height="20.1041" transform="rotate(-90 0 6.75635)" fill="#252525"/>
<rect y="12.606" width="0.548419" height="20.1041" transform="rotate(-90 0 12.606)" fill="#252525"/>
<rect y="8.88892" width="0.548419" height="20.1041" transform="rotate(-90 0 8.88892)" fill="#252525"/>
<rect y="0.54834" width="0.548419" height="20.1041" transform="rotate(-90 0 0.54834)" fill="#252525"/>
<rect y="24" width="0.548419" height="20.1041" transform="rotate(-90 0 24)" fill="#252525"/>
<rect y="14.4341" width="0.243742" height="20.1041" transform="rotate(-90 0 14.4341)" fill="#252525"/>
<rect y="22.5059" width="0.243742" height="20.1041" transform="rotate(-90 0 22.5059)" fill="#252525"/>
<rect y="21.3162" width="0.243742" height="20.1041" transform="rotate(-90 0 21.3162)" fill="#252525"/>
<rect y="13.5203" width="0.243742" height="20.1041" transform="rotate(-90 0 13.5203)" fill="#252525"/>
<rect y="7.67041" width="0.243742" height="20.1041" transform="rotate(-90 0 7.67041)" fill="#252525"/>
</svg>
