<svg width="8" height="60" viewBox="0 0 8 60" fill="none" xmlns="http://www.w3.org/2000/svg">
<rect x="7.60791" y="31.3685" width="4.54651" height="7.60769" transform="rotate(90 7.60791 31.3685)" fill="#252525"/>
<rect x="7.60791" y="42.8863" width="4.54651" height="7.60769" transform="rotate(90 7.60791 42.8863)" fill="#252525"/>
<rect x="7.60791" y="28.3375" width="1.36395" height="7.60769" transform="rotate(90 7.60791 28.3375)" fill="#252525"/>
<rect x="7.60791" y="37.582" width="1.36395" height="7.60769" transform="rotate(90 7.60791 37.582)" fill="#252525"/>
<rect x="7.60791" y="58.3256" width="1.36395" height="7.60769" transform="rotate(90 7.60791 58.3256)" fill="#252525"/>
<rect x="7.60791" y="-1.52588e-05" width="1.36395" height="7.60769" transform="rotate(90 7.60791 -1.52588e-05)" fill="#252525"/>
<rect x="7.60791" y="23.7909" width="0.606201" height="7.60769" transform="rotate(90 7.60791 23.7909)" fill="#252525"/>
<rect x="7.60791" y="3.71632" width="0.606201" height="7.60769" transform="rotate(90 7.60791 3.71632)" fill="#252525"/>
<rect x="7.60791" y="6.67488" width="0.606201" height="7.60769" transform="rotate(90 7.60791 6.67488)" fill="#252525"/>
<rect x="7.60791" y="26.0641" width="0.606201" height="7.60769" transform="rotate(90 7.60791 26.0641)" fill="#252525"/>
<rect x="7.60791" y="40.6131" width="0.606201" height="7.60769" transform="rotate(90 7.60791 40.6131)" fill="#252525"/>
</svg>
