<svg width="23" height="17" viewBox="0 0 23 17" fill="none" xmlns="http://www.w3.org/2000/svg">
<path d="M1.31753 0.66203C1.31752 0.79336 1.27864 0.921716 1.20582 1.03077C1.13301 1.13983 1.02954 1.22466 0.908603 1.27447C0.787671 1.32428 0.654725 1.33681 0.526681 1.31048C0.398638 1.28415 0.281282 1.22015 0.189543 1.12661C0.097803 1.03307 0.035849 0.914224 0.0115185 0.78519C-0.0128119 0.656156 0.00159328 0.522769 0.0529215 0.401991C0.10425 0.281214 0.190183 0.178507 0.299766 0.106936C0.40935 0.0353655 0.537631 -0.00183377 0.668314 6.95517e-05C0.841372 0.00259004 1.00649 0.0734423 1.12797 0.197312C1.24946 0.321182 1.31755 0.488117 1.31753 0.66203Z" fill="#252525"/>
<path d="M6.74039 0.662033C6.74039 0.792957 6.70176 0.92094 6.62938 1.0298C6.55699 1.13866 6.4541 1.22351 6.33373 1.27361C6.21335 1.32371 6.08091 1.33682 5.95312 1.31128C5.82533 1.28573 5.70794 1.22269 5.6158 1.13011C5.52367 1.03753 5.46093 0.919585 5.43551 0.791176C5.41009 0.662768 5.42314 0.529667 5.47301 0.40871C5.52287 0.287752 5.60729 0.184368 5.71563 0.111631C5.82396 0.0388934 5.95135 7.24792e-05 6.08164 7.24792e-05C6.25636 7.24792e-05 6.4239 0.0698135 6.54744 0.193955C6.67099 0.318097 6.74039 0.48647 6.74039 0.662033Z" fill="#252525"/>
<path d="M12.1589 0.662033C12.1589 0.792957 12.1202 0.92094 12.0478 1.0298C11.9754 1.13866 11.8726 1.22351 11.7522 1.27361C11.6318 1.32371 11.4994 1.33682 11.3716 1.31128C11.2438 1.28573 11.1264 1.22269 11.0343 1.13011C10.9421 1.03753 10.8794 0.919585 10.854 0.791176C10.8285 0.662768 10.8416 0.529667 10.8915 0.40871C10.9413 0.287752 11.0258 0.184368 11.1341 0.111631C11.2424 0.0388934 11.3698 7.24792e-05 11.5001 7.24792e-05C11.6748 7.24792e-05 11.8424 0.0698135 11.9659 0.193955C12.0895 0.318097 12.1589 0.48647 12.1589 0.662033Z" fill="#252525"/>
<path d="M17.5768 0.662051C17.5768 0.793178 17.5381 0.92135 17.4655 1.03031C17.3929 1.13927 17.2897 1.22411 17.1691 1.27407C17.0484 1.32403 16.9157 1.33685 16.7878 1.31092C16.6599 1.28499 16.5425 1.22146 16.4505 1.1284C16.3586 1.03535 16.2962 0.916948 16.2714 0.788226C16.2465 0.659503 16.2602 0.526257 16.3108 0.405386C16.3614 0.284515 16.4466 0.181467 16.5555 0.10931C16.6645 0.0371523 16.7923 -0.00086033 16.9228 8.98675e-05C17.0091 8.75577e-05 17.0946 0.0172428 17.1742 0.050568C17.2539 0.0838932 17.3262 0.13273 17.387 0.194262C17.4478 0.255794 17.4958 0.328804 17.5284 0.409089C17.561 0.489375 17.5774 0.575348 17.5768 0.662051Z" fill="#252525"/>
<path d="M22.9997 0.662033C22.9997 0.792957 22.961 0.92094 22.8887 1.0298C22.8163 1.13866 22.7134 1.22351 22.593 1.27361C22.4726 1.32371 22.3402 1.33682 22.2124 1.31128C22.0846 1.28573 21.9672 1.22269 21.8751 1.13011C21.783 1.03753 21.7202 0.919585 21.6948 0.791176C21.6694 0.662768 21.6824 0.529667 21.7323 0.40871C21.7821 0.287752 21.8666 0.184368 21.9749 0.111631C22.0832 0.0388934 22.2106 7.24792e-05 22.3409 7.24792e-05C22.5156 7.24792e-05 22.6832 0.0698135 22.8067 0.193955C22.9303 0.318097 22.9997 0.48647 22.9997 0.662033Z" fill="#252525"/>
<path d="M1.31753 5.64594C1.31752 5.77727 1.27864 5.90562 1.20582 6.01468C1.13301 6.12374 1.02954 6.20857 0.908603 6.25838C0.787671 6.30818 0.654725 6.32072 0.526681 6.29439C0.398638 6.26806 0.281282 6.20406 0.189543 6.11052C0.097803 6.01698 0.035849 5.89813 0.0115185 5.7691C-0.0128119 5.64006 0.00159328 5.50668 0.0529215 5.3859C0.10425 5.26512 0.190183 5.16241 0.299766 5.09084C0.40935 5.01927 0.537631 4.98207 0.668314 4.98398C0.841372 4.9865 1.00649 5.05735 1.12797 5.18122C1.24946 5.30509 1.31755 5.47202 1.31753 5.64594Z" fill="#252525"/>
<path d="M6.74039 5.64594C6.74039 5.77687 6.70176 5.90485 6.62938 6.01371C6.55699 6.12257 6.4541 6.20741 6.33373 6.25752C6.21335 6.30762 6.08091 6.32073 5.95312 6.29519C5.82533 6.26964 5.70794 6.2066 5.6158 6.11402C5.52367 6.02144 5.46093 5.90349 5.43551 5.77509C5.41009 5.64668 5.42314 5.51358 5.47301 5.39262C5.52287 5.27167 5.60729 5.16828 5.71563 5.09554C5.82396 5.0228 5.95135 4.98398 6.08164 4.98398C6.25636 4.98398 6.4239 5.05372 6.54744 5.17787C6.67099 5.30201 6.74039 5.47038 6.74039 5.64594Z" fill="#252525"/>
<path d="M12.1589 5.64594C12.1589 5.77687 12.1202 5.90485 12.0478 6.01371C11.9754 6.12257 11.8726 6.20741 11.7522 6.25752C11.6318 6.30762 11.4994 6.32073 11.3716 6.29519C11.2438 6.26964 11.1264 6.2066 11.0343 6.11402C10.9421 6.02144 10.8794 5.90349 10.854 5.77509C10.8285 5.64668 10.8416 5.51358 10.8915 5.39262C10.9413 5.27167 11.0258 5.16828 11.1341 5.09554C11.2424 5.0228 11.3698 4.98398 11.5001 4.98398C11.6748 4.98398 11.8424 5.05372 11.9659 5.17787C12.0895 5.30201 12.1589 5.47038 12.1589 5.64594Z" fill="#252525"/>
<path d="M17.5768 5.64589C17.5768 5.77701 17.5381 5.90519 17.4655 6.01415C17.3929 6.12311 17.2897 6.20795 17.1691 6.25791C17.0484 6.30787 16.9157 6.32069 16.7878 6.29476C16.6599 6.26882 16.5425 6.2053 16.4505 6.11224C16.3586 6.01918 16.2962 5.90079 16.2714 5.77206C16.2465 5.64334 16.2602 5.51009 16.3108 5.38922C16.3614 5.26835 16.4466 5.1653 16.5555 5.09314C16.6645 5.02099 16.7923 4.98297 16.9228 4.98393C17.0091 4.98392 17.0946 5.00108 17.1742 5.0344C17.2539 5.06773 17.3262 5.11656 17.387 5.1781C17.4478 5.23963 17.4958 5.31264 17.5284 5.39293C17.561 5.47321 17.5774 5.55918 17.5768 5.64589Z" fill="#252525"/>
<path d="M22.9997 5.64594C22.9997 5.77687 22.961 5.90485 22.8887 6.01371C22.8163 6.12257 22.7134 6.20741 22.593 6.25752C22.4726 6.30762 22.3402 6.32073 22.2124 6.29519C22.0846 6.26964 21.9672 6.2066 21.8751 6.11402C21.783 6.02144 21.7202 5.90349 21.6948 5.77509C21.6694 5.64668 21.6824 5.51358 21.7323 5.39262C21.7821 5.27167 21.8666 5.16828 21.9749 5.09554C22.0832 5.0228 22.2106 4.98398 22.3409 4.98398C22.5156 4.98398 22.6832 5.05372 22.8067 5.17787C22.9303 5.30201 22.9997 5.47038 22.9997 5.64594Z" fill="#252525"/>
<path d="M1.31754 10.649C1.31754 10.7799 1.27892 10.9079 1.20653 11.0168C1.13415 11.1256 1.03126 11.2105 0.910884 11.2606C0.790509 11.3107 0.658034 11.3238 0.530245 11.2983C0.402455 11.2727 0.285091 11.2097 0.19296 11.1171C0.100829 11.0245 0.0380822 10.9066 0.0126632 10.7782C-0.0127557 10.6498 0.000271732 10.5167 0.0501328 10.3957C0.0999939 10.2747 0.184447 10.1714 0.292782 10.0986C0.401117 10.0259 0.528472 9.98706 0.658766 9.98706C0.833484 9.98706 1.00106 10.0568 1.1246 10.1809C1.24814 10.3051 1.31754 10.4735 1.31754 10.649Z" fill="#252525"/>
<path d="M6.74039 10.649C6.74039 10.7799 6.70176 10.9079 6.62938 11.0168C6.55699 11.1256 6.4541 11.2105 6.33373 11.2606C6.21335 11.3107 6.08091 11.3238 5.95312 11.2983C5.82533 11.2727 5.70794 11.2097 5.6158 11.1171C5.52367 11.0245 5.46093 10.9066 5.43551 10.7782C5.41009 10.6498 5.42314 10.5167 5.47301 10.3957C5.52287 10.2747 5.60729 10.1714 5.71563 10.0986C5.82396 10.0259 5.95135 9.98706 6.08164 9.98706C6.25636 9.98706 6.4239 10.0568 6.54744 10.1809C6.67099 10.3051 6.74039 10.4735 6.74039 10.649Z" fill="#252525"/>
<path d="M12.1589 10.649C12.1589 10.7799 12.1202 10.9079 12.0478 11.0168C11.9754 11.1256 11.8726 11.2105 11.7522 11.2606C11.6318 11.3107 11.4994 11.3238 11.3716 11.2983C11.2438 11.2727 11.1264 11.2097 11.0343 11.1171C10.9421 11.0245 10.8794 10.9066 10.854 10.7782C10.8285 10.6498 10.8416 10.5167 10.8915 10.3957C10.9413 10.2747 11.0258 10.1714 11.1341 10.0986C11.2424 10.0259 11.3698 9.98706 11.5001 9.98706C11.6748 9.98706 11.8424 10.0568 11.9659 10.1809C12.0895 10.3051 12.1589 10.4735 12.1589 10.649Z" fill="#252525"/>
<path d="M16.9229 11.2917C17.2868 11.2917 17.5817 10.9954 17.5817 10.6298C17.5817 10.2642 17.2868 9.96782 16.9229 9.96782C16.5591 9.96782 16.2642 10.2642 16.2642 10.6298C16.2642 10.9954 16.5591 11.2917 16.9229 11.2917Z" fill="#252525"/>
<path d="M22.3409 11.2917C22.7047 11.2917 22.9997 10.9954 22.9997 10.6298C22.9997 10.2642 22.7047 9.96782 22.3409 9.96782C21.9771 9.96782 21.6821 10.2642 21.6821 10.6298C21.6821 10.9954 21.9771 11.2917 22.3409 11.2917Z" fill="#252525"/>
<path d="M1.31738 15.6137C1.32022 15.7456 1.28378 15.8754 1.21272 15.9863C1.14166 16.0973 1.03922 16.1843 0.918558 16.2364C0.797898 16.2884 0.664512 16.303 0.535529 16.2783C0.406546 16.2536 0.287846 16.1908 0.194661 16.0978C0.101475 16.0049 0.0380702 15.8861 0.0125574 15.7567C-0.0129554 15.6272 0.000596936 15.4931 0.0514838 15.3715C0.102371 15.2499 0.188274 15.1463 0.298154 15.0741C0.408034 15.0019 0.536871 14.9643 0.668158 14.9662C0.838765 14.9686 1.00177 15.0375 1.12286 15.1582C1.24396 15.279 1.31369 15.4423 1.31738 15.6137Z" fill="#252525"/>
<path d="M6.74039 15.6138C6.74039 15.7447 6.70176 15.8727 6.62938 15.9815C6.55699 16.0904 6.4541 16.1752 6.33373 16.2253C6.21335 16.2754 6.08091 16.2885 5.95312 16.263C5.82533 16.2375 5.70794 16.1744 5.6158 16.0818C5.52367 15.9893 5.46093 15.8713 5.43551 15.7429C5.41009 15.6145 5.42314 15.4814 5.47301 15.3604C5.52287 15.2395 5.60729 15.1361 5.71563 15.0634C5.82396 14.9906 5.95135 14.9518 6.08164 14.9518C6.25636 14.9518 6.4239 15.0215 6.54744 15.1457C6.67099 15.2698 6.74039 15.4382 6.74039 15.6138Z" fill="#252525"/>
<path d="M12.1589 15.6138C12.1589 15.7447 12.1202 15.8727 12.0478 15.9815C11.9754 16.0904 11.8726 16.1752 11.7522 16.2253C11.6318 16.2754 11.4994 16.2885 11.3716 16.263C11.2438 16.2375 11.1264 16.1744 11.0343 16.0818C10.9421 15.9893 10.8794 15.8713 10.854 15.7429C10.8285 15.6145 10.8416 15.4814 10.8915 15.3604C10.9413 15.2395 11.0258 15.1361 11.1341 15.0634C11.2424 14.9906 11.3698 14.9518 11.5001 14.9518C11.6748 14.9518 11.8424 15.0215 11.9659 15.1457C12.0895 15.2698 12.1589 15.4382 12.1589 15.6138Z" fill="#252525"/>
<path d="M17.5768 15.6138C17.5768 15.7449 17.5381 15.8731 17.4655 15.982C17.3929 16.091 17.2897 16.1758 17.1691 16.2258C17.0484 16.2758 16.9157 16.2886 16.7878 16.2626C16.6599 16.2367 16.5425 16.1732 16.4505 16.0801C16.3586 15.9871 16.2962 15.8687 16.2714 15.74C16.2465 15.6112 16.2602 15.478 16.3108 15.3571C16.3614 15.2362 16.4466 15.1332 16.5555 15.061C16.6645 14.9889 16.7923 14.9509 16.9228 14.9518C17.0091 14.9518 17.0946 14.969 17.1742 15.0023C17.2539 15.0356 17.3262 15.0845 17.387 15.146C17.4478 15.2075 17.4958 15.2805 17.5284 15.3608C17.561 15.4411 17.5774 15.5271 17.5768 15.6138Z" fill="#252525"/>
<path d="M23 15.6137C23.0029 15.7452 22.9666 15.8746 22.896 15.9853C22.8254 16.0961 22.7235 16.1831 22.6034 16.2355C22.4833 16.2878 22.3504 16.303 22.2217 16.2791C22.093 16.2552 21.9743 16.1933 21.8807 16.1013C21.7871 16.0093 21.723 15.8914 21.6964 15.7626C21.6698 15.6339 21.6819 15.5 21.7314 15.3782C21.7808 15.2564 21.8652 15.1522 21.9738 15.0788C22.0824 15.0054 22.2103 14.9662 22.3412 14.9662C22.5135 14.9661 22.6789 15.0339 22.8021 15.1549C22.9252 15.276 22.9963 15.4407 23 15.6137Z" fill="#252525"/>
</svg>
