<svg width="64" height="64" viewBox="0 0 64 64" fill="none" xmlns="http://www.w3.org/2000/svg">
<path d="M41.6 9.6C41.6 12.1461 40.5886 14.5879 38.7882 16.3882C36.9879 18.1886 34.5461 19.2 32 19.2C29.4539 19.2 27.0121 18.1886 25.2118 16.3882C23.4114 14.5879 22.4 12.1461 22.4 9.6C22.4 7.05392 23.4114 4.61212 25.2118 2.81178C27.0121 1.01143 29.4539 0 32 0C34.5461 0 36.9879 1.01143 38.7882 2.81178C40.5886 4.61212 41.6 7.05392 41.6 9.6ZM38.4 32C38.4 33.6974 37.7257 35.3252 36.5255 36.5255C35.3252 37.7257 33.6974 38.4 32 38.4C30.3026 38.4 28.6748 37.7257 27.4745 36.5255C26.2743 35.3252 25.6 33.6974 25.6 32C25.6 30.3026 26.2743 28.6748 27.4745 27.4745C28.6748 26.2743 30.3026 25.6 32 25.6C33.6974 25.6 35.3252 26.2743 36.5255 27.4745C37.7257 28.6748 38.4 30.3026 38.4 32ZM32 64C34.5461 64 36.9879 62.9886 38.7882 61.1882C40.5886 59.3879 41.6 56.9461 41.6 54.4C41.6 51.8539 40.5886 49.4121 38.7882 47.6118C36.9879 45.8114 34.5461 44.8 32 44.8C29.4539 44.8 27.0121 45.8114 25.2118 47.6118C23.4114 49.4121 22.4 51.8539 22.4 54.4C22.4 56.9461 23.4114 59.3879 25.2118 61.1882C27.0121 62.9886 29.4539 64 32 64ZM64 32C64 34.5461 62.9886 36.9879 61.1882 38.7882C59.3879 40.5886 56.9461 41.6 54.4 41.6C51.8539 41.6 49.4121 40.5886 47.6118 38.7882C45.8114 36.9879 44.8 34.5461 44.8 32C44.8 29.4539 45.8114 27.0121 47.6118 25.2118C49.4121 23.4114 51.8539 22.4 54.4 22.4C56.9461 22.4 59.3879 23.4114 61.1882 25.2118C62.9886 27.0121 64 29.4539 64 32ZM9.6 41.6C12.1461 41.6 14.5879 40.5886 16.3882 38.7882C18.1886 36.9879 19.2 34.5461 19.2 32C19.2 29.4539 18.1886 27.0121 16.3882 25.2118C14.5879 23.4114 12.1461 22.4 9.6 22.4C7.05392 22.4 4.61212 23.4114 2.81178 25.2118C1.01143 27.0121 0 29.4539 0 32C0 34.5461 1.01143 36.9879 2.81178 38.7882C4.61212 40.5886 7.05392 41.6 9.6 41.6Z" fill="#252525"/>
</svg>
