<svg width="20" height="20" viewBox="0 0 20 20" fill="none" xmlns="http://www.w3.org/2000/svg">
<path d="M4 16.1248V16V15.3957C4 12.9795 5.95873 11.0207 8.37494 11.0207H11.2916C13.7078 11.0207 15.6665 12.9795 15.6665 15.3957V16.1248" fill="#F9F9F9"/>
<path d="M4 16.1248V16V15.3957C4 12.9795 5.95873 11.0207 8.37494 11.0207H11.2916C13.7078 11.0207 15.6665 12.9795 15.6665 15.3957V16.1248" stroke="#F9F9F9"/>
<path d="M9.83362 8.83325C8.22281 8.83325 6.91699 7.52743 6.91699 5.91663C6.91699 4.30582 8.22281 3 9.83362 3C11.4444 3 12.7502 4.30582 12.7502 5.91663C12.7502 7.52743 11.4444 8.83325 9.83362 8.83325Z" fill="#F9F9F9" stroke="#F9F9F9" stroke-linecap="round"/>
</svg>
