<svg width="395" height="844" viewBox="0 0 395 844" fill="none" xmlns="http://www.w3.org/2000/svg">
<path fill-rule="evenodd" clip-rule="evenodd" d="M344 0H51C25.0426 0 4 21.0426 4 47V199H2C0.895431 199 0 199.895 0 201V261C0 262.105 0.895431 263 2 263H4V279H2C0.895431 279 0 279.895 0 281V341C0 342.105 0.895431 343 2 343H4V797C4 822.957 25.0426 844 51 844H344C369.957 844 391 822.957 391 797V279H393C394.105 279 395 278.105 395 277V201C395 199.895 394.105 199 393 199H391V47C391 21.0426 369.957 0 344 0ZM51 16C28.3563 16 10 34.3563 10 57V787C10 809.644 28.3563 828 51 828H344C366.644 828 385 809.644 385 787V57C385 34.3563 366.644 16 344 16H51Z" fill="#252525"/>
<path d="M208 32C208 37.5228 203.523 42 198 42C192.477 42 188 37.5228 188 32C188 26.4772 192.477 22 198 22C203.523 22 208 26.4772 208 32Z" fill="#252525"/>
</svg>
