<svg width="164" height="164" viewBox="0 0 164 164" fill="none" xmlns="http://www.w3.org/2000/svg">
<circle cx="82" cy="82" r="82" fill="#252525"/>
<path d="M46.2563 78.1927L46.2563 82.3209L56.7507 81.0959V76.6278L46.2563 78.1927ZM49.6053 82.572V96.718H53.4473L53.4473 82.1553L49.6053 82.572ZM58.168 76.4165L58.168 96.718H62.2164L62.2164 75.8125L58.168 76.4165ZM62.9707 75.6999V80.37L68.8167 79.6875V74.8282L62.9707 75.6999ZM62.9707 83.846L62.9707 88.6013L66.8082 88.3792V83.4955L62.9707 83.846ZM62.9707 92.0289V96.718H68.8167V91.8418L62.9707 92.0289ZM83.9351 72.5663V96.718H89.2423V71.7747L83.9351 72.5663ZM90.2334 71.6267V77.1821L97.9677 76.2797V70.473L90.2334 71.6267ZM90.2334 81.3602V87.0185L95.3028 86.7248V80.8995L90.2334 81.3602ZM90.2334 91.1544V96.718H97.9677V90.9066L90.2334 91.1544ZM70.3635 74.5971V96.718H74.9751V73.9091L70.3635 74.5971ZM75.8359 91.617V96.7177L82.53 96.7177V91.4026L75.8359 91.617ZM115.308 70.1999C113.63 68.5182 111.171 67.8284 108.481 68.2385V74.4001C109.57 74.3359 110.453 74.7649 110.846 75.6286C111.467 76.9904 110.826 79.0336 109.315 80.9266C106.982 83.8478 100.779 89.8269 100.779 89.8269L109.684 89.5162C115.125 83.8753 117.079 80.4512 117.43 76.1777C117.614 73.9168 116.841 71.7384 115.308 70.1999ZM107.443 68.3768C102.195 69.5626 99.6187 73.6591 99.9161 80.3434L105.511 79.8166C105.256 76.0403 106.344 75.1444 107.445 74.6519L107.443 68.3768Z" fill="#F9F9F9"/>
<path d="M117.744 96.718L117.744 90.2707L99.6815 90.8481L99.6834 96.7177L117.744 96.718Z" fill="#F9F9F9"/>
</svg>
