<svg width="24" height="24" viewBox="0 0 24 24" fill="none" xmlns="http://www.w3.org/2000/svg">
<g clip-path="url(#clip0_790_6337)">
<path d="M24 7.2106H20.6052C18.2532 5.6098 15.3756 4.7998 12 4.7998C8.6244 4.7998 5.7456 5.6098 3.3948 7.2106H0C0.5136 7.7146 0.9924 8.8186 1.1916 9.6586C0.422184 10.6829 0.00423245 11.9283 0 13.2094C0 16.5178 2.6916 19.2094 6 19.2094C7.53017 19.2067 9.00077 18.616 10.1076 17.5594L12 20.3998L13.8924 17.5606C14.999 18.6176 16.4697 19.2088 18 19.2118C21.3084 19.2118 24 16.5202 24 13.2118C24 11.8774 23.5476 10.6558 22.8084 9.65981C23.0076 8.81981 23.4864 7.71581 24 7.21181V7.2106ZM6 17.2906C3.75 17.2906 1.92 15.4606 1.92 13.2106C1.92 10.9606 3.75 9.13061 6 9.13061C8.25 9.13061 10.08 10.9606 10.08 13.2106C10.08 15.4606 8.25 17.2906 6 17.2906ZM12 13.2106C11.998 11.8264 11.5182 10.4853 10.6416 9.41397C9.76509 8.34263 8.5456 7.60673 7.1892 7.33061C8.634 6.8446 10.236 6.5998 12 6.5998C13.764 6.5998 15.366 6.8446 16.8108 7.3318C15.4548 7.60785 14.2356 8.3434 13.3591 9.41424C12.4827 10.4851 12.0026 11.8256 12 13.2094V13.2106ZM18 17.2906C15.75 17.2906 13.92 15.4606 13.92 13.2106C13.92 10.9606 15.75 9.13061 18 9.13061C20.25 9.13061 22.08 10.9606 22.08 13.2106C22.08 15.4606 20.25 17.2906 18 17.2906ZM6 10.6318C4.578 10.6318 3.42 11.7886 3.42 13.2118C3.42 14.635 4.578 15.7918 6 15.7918C7.422 15.7918 8.58 14.635 8.58 13.2118C8.58 11.7886 7.422 10.6318 6 10.6318ZM6 13.981C5.79313 13.981 5.59474 13.8988 5.44846 13.7525C5.30218 13.6063 5.22 13.4079 5.22 13.201C5.22 12.9941 5.30218 12.7957 5.44846 12.6495C5.59474 12.5032 5.79313 12.421 6 12.421C6.20687 12.421 6.40527 12.5032 6.55154 12.6495C6.69782 12.7957 6.78 12.9941 6.78 13.201C6.78 13.4079 6.69782 13.6063 6.55154 13.7525C6.40527 13.8988 6.20687 13.981 6 13.981ZM18 10.6318C16.578 10.6318 15.42 11.7886 15.42 13.2118C15.42 14.635 16.578 15.7918 18 15.7918C19.422 15.7918 20.58 14.635 20.58 13.2118C20.58 11.7886 19.422 10.6318 18 10.6318ZM18 13.981C17.7931 13.981 17.5947 13.8988 17.4485 13.7525C17.3022 13.6063 17.22 13.4079 17.22 13.201C17.22 12.9941 17.3022 12.7957 17.4485 12.6495C17.5947 12.5032 17.7931 12.421 18 12.421C18.2069 12.421 18.4053 12.5032 18.5515 12.6495C18.6978 12.7957 18.78 12.9941 18.78 13.201C18.78 13.4079 18.6978 13.6063 18.5515 13.7525C18.4053 13.8988 18.2069 13.981 18 13.981Z" fill="#252525"/>
</g>
<defs>
<clipPath id="clip0_790_6337">
<rect width="24" height="24" fill="white"/>
</clipPath>
</defs>
</svg>
